# This file uses centimeters as units for non-parametric coordinates.

mtllib Block_Tile.mtl
g default
v 2.000000 0.000000 -2.000000
v -2.000000 0.000000 -2.000000
v 2.000000 0.000000 2.000000
v -2.000000 0.000000 2.000000
v 2.000000 4.000000 -1.800020
v 2.000000 3.800020 -2.000000
v 2.000000 3.900010 -1.973208
v 2.000000 3.973208 -1.900010
v -2.000000 4.000000 -1.800020
v -2.000000 3.973208 -1.900010
v -2.000000 3.900010 -1.973208
v -2.000000 3.800020 -2.000000
v 2.000000 3.800020 2.000000
v 2.000000 4.000000 1.800020
v 2.000000 3.973208 1.900010
v 2.000000 3.900010 1.973208
v -2.000000 3.800020 2.000000
v -2.000000 3.900010 1.973208
v -2.000000 3.973208 1.900010
v -2.000000 4.000000 1.800020
vt 0.625000 0.750000
vt 0.375000 1.000000
vt 0.625000 1.000000
vt 0.125000 0.000000
vt 0.362501 0.250000
vt 0.125000 0.237501
vt 0.625000 0.000000
vt 0.875000 0.000000
vt 0.862501 0.250000
vt 0.375000 0.000000
vt 0.625000 0.512499
vt 0.375000 0.750000
vt 0.625000 0.262499
vt 0.375000 0.487501
vt 0.375000 0.262499
vt 0.375000 0.256249
vt 0.625000 0.256249
vt 0.375000 0.248325
vt 0.625000 0.243751
vt 0.625000 0.248325
vt 0.375000 0.243751
vt 0.625000 0.237501
vt 0.375000 0.512499
vt 0.375000 0.506249
vt 0.625000 0.506249
vt 0.375000 0.498325
vt 0.625000 0.493751
vt 0.625000 0.498325
vt 0.375000 0.493751
vt 0.625000 0.487501
vt 0.375000 0.237501
vt 0.373325 0.243751
vt 0.368751 0.248325
vt 0.637499 0.250000
vt 0.631249 0.248325
vt 0.626675 0.243751
vt 0.137499 0.250000
vt 0.131249 0.248325
vt 0.126675 0.243751
vt 0.875000 0.237501
vt 0.873325 0.243751
vt 0.868751 0.248325
vn 0.000000 0.000000 -1.000000
vn 0.000000 0.000000 -1.000000
vn 0.000000 0.130526 -0.991445
vn 0.000000 0.130526 -0.991445
vn 0.000000 0.991445 -0.130526
vn 0.000000 0.991445 -0.130526
vn -0.000000 0.991445 0.130526
vn -0.000000 0.991445 0.130526
vn -0.000000 0.130526 0.991445
vn -0.000000 0.130526 0.991445
vn -0.000000 0.000000 1.000000
vn -0.000000 0.000000 1.000000
vn 0.000000 -1.000000 0.000000
vn 0.000000 -1.000000 0.000000
vn 0.000000 -1.000000 0.000000
vn 0.000000 -1.000000 0.000000
vn -1.000000 0.000000 -0.000000
vn -1.000000 0.000000 -0.000000
vn -1.000000 0.000000 -0.000000
vn -1.000000 0.000000 -0.000000
vn 1.000000 0.000000 0.000000
vn 1.000000 0.000000 0.000000
vn 1.000000 0.000000 0.000000
vn 1.000000 0.000000 0.000000
vn 0.000000 0.866026 -0.500000
vn 0.000000 0.866026 -0.500000
vn 0.000000 0.707107 -0.707106
vn 0.000000 0.707107 -0.707106
vn 0.000000 0.258819 -0.965926
vn 0.000000 0.258819 -0.965926
vn -0.000000 0.258819 0.965926
vn -0.000000 0.258819 0.965926
vn -0.000000 0.707107 0.707106
vn -0.000000 0.866026 0.500000
vn -0.000000 0.866026 0.500000
vn -0.000000 0.707107 0.707106
vn 1.000000 0.000000 0.000000
vn 1.000000 0.000000 0.000000
vn 1.000000 0.000000 0.000000
vn 1.000000 0.000000 0.000000
vn -1.000000 0.000000 -0.000000
vn -1.000000 0.000000 -0.000000
vn 1.000000 0.000000 0.000000
vn 1.000000 0.000000 0.000000
vn 1.000000 0.000000 0.000000
vn 1.000000 0.000000 0.000000
vn -1.000000 0.000000 -0.000000
vn -1.000000 0.000000 -0.000000
vn -1.000000 0.000000 -0.000000
vn -1.000000 0.000000 -0.000000
vn -1.000000 0.000000 -0.000000
vn -1.000000 0.000000 -0.000000
s 1
g Block_Tile
usemtl initialShadingGroup
f 1/10/1 2/7/2 12/22/3 6/31/4
s 2
f 5/15/5 9/13/6 20/30/7 14/14/8
s 3
f 13/23/9 17/11/10 4/1/11 3/12/12
s off
f 3/12/13 4/1/14 2/3/15 1/2/16
s 5
f 12/22/17 17/40/18 20/9/19 9/34/20
s off
f 3/4/21 1/10/22 6/31/23 13/6/24
s 2
f 5/15/5 8/16/25 10/17/26 9/13/6
f 8/18/25 7/21/27 11/19/28 10/20/26
s 1
f 7/21/29 6/31/4 12/22/3 11/19/30
s 3
f 13/23/9 16/24/31 18/25/32 17/11/10
s 2
f 16/26/33 15/29/34 19/27/35 18/28/36
f 15/29/34 14/14/8 20/30/7 19/27/35
s 7
f 5/5/37 6/31/38 7/32/39 8/33/40
s 5
f 9/34/20 10/35/41 11/36/42 12/22/17
s 7
f 13/6/43 14/37/44 15/38/45 16/39/46
s 5
f 17/40/18 18/41/47 19/42/48 20/9/19
s off
f 2/7/49 4/8/50 17/40/51 12/22/52
s 7
f 13/6/43 6/31/38 5/5/37 14/37/44
