# This file uses centimeters as units for non-parametric coordinates.

mtllib Edge_LargeSlope_Tile.mtl
g default
v 2.000000 0.000000 -2.000000
v 2.000000 0.000000 2.000000
v 2.000000 4.000000 -1.888208
v 2.000000 3.888208 -2.000000
v 2.000000 3.944104 -1.985023
v 2.000000 3.985023 -1.944104
v -1.900009 0.950005 -1.888208
v -1.931942 0.983063 -1.888208
v -1.936069 1.028838 -1.888208
v -1.910566 1.067075 -1.888208
v -1.891119 1.061290 -1.948438
v -1.844158 1.044715 -1.987610
v -1.788218 1.019096 -2.000000
v -1.839062 0.984459 -1.987622
v -1.882095 0.959469 -1.948453
v 2.000000 3.888208 2.000000
v 2.000000 4.000000 1.888208
v 2.000000 3.985023 1.944104
v 2.000000 3.944104 1.985023
v -1.900009 0.950005 1.888208
v -1.882095 0.959469 1.948453
v -1.839062 0.984459 1.987622
v -1.788218 1.019096 2.000000
v -1.844158 1.044715 1.987610
v -1.891119 1.061290 1.948438
v -1.910566 1.067075 1.888208
v -1.936069 1.028838 1.888208
v -1.931942 0.983063 1.888208
v 0.000000 0.000000 -1.888208
v 0.014977 0.000000 -1.944104
v 0.055895 0.000000 -1.985023
v 0.111792 0.000000 -2.000000
v -0.000000 0.000000 1.888208
v 0.111792 0.000000 2.000000
v 0.055895 0.000000 1.985023
v 0.014977 0.000000 1.944104
v -1.914413 0.989930 -1.944071
v -1.917608 1.025562 -1.943998
v -1.885899 1.010651 -1.975320
v -1.914413 0.989930 1.944071
v -1.885899 1.010651 1.975320
v -1.917608 1.025562 1.943998
vt 0.125000 0.000000
vt 0.368013 0.250000
vt 0.125000 0.243013
vt 0.625000 0.756987
vt 0.611026 1.000000
vt 0.375000 1.000000
vt 0.375000 0.493013
vt 0.375000 0.000000
vt 0.631987 -0.000000
vt 0.375000 0.750000
vt 0.375000 0.256987
vt 0.375449 0.253494
vt 0.375000 0.249064
vt 0.619213 0.247963
vt 0.375000 0.246506
vt 0.619410 0.256987
vt 0.622786 0.256987
vt 0.868013 0.242347
vt 0.631987 0.237501
vt 0.628222 0.236183
vt 0.628473 0.000000
vt 0.618013 0.000000
vt 0.623128 0.000000
vt 0.611026 0.000000
vt 0.375000 0.506987
vt 0.375000 0.503494
vt 0.376677 0.499064
vt 0.617425 0.499226
vt 0.375449 0.496507
vt 0.619410 0.493013
vt 0.618751 0.513974
vt 0.618013 0.750000
vt 0.624079 0.512896
vt 0.623128 0.750000
vt 0.868013 0.000000
vt 0.870039 0.000000
vt 0.375000 0.243013
vt 0.374064 0.246506
vt 0.371507 0.249064
vt 0.131987 0.250000
vt 0.128494 0.249064
vt 0.125936 0.246506
vt 0.625000 0.993013
vt 0.623128 0.996506
vt 0.618013 0.999064
vt 0.611026 0.750000
vt 0.618013 0.750936
vt 0.623128 0.753494
vt 0.631987 0.242347
vt 0.628496 0.240938
vt 0.621879 0.253496
vt 0.621578 0.256987
vt 0.620937 0.253500
vt 0.618806 0.253223
vt 0.618868 0.242783
vt 0.618751 0.236026
vt 0.621754 0.236376
vt 0.624079 0.237104
vt 0.623364 0.242574
vt 0.621662 0.246377
vt 0.621615 0.242508
vt 0.868013 0.237501
vt 0.871778 0.236183
vt 0.871504 0.240938
vt 0.623364 0.507426
vt 0.621754 0.513624
vt 0.621615 0.507493
vt 0.618868 0.507217
vt 0.618806 0.496777
vt 0.621578 0.493013
vt 0.622786 0.493013
vt 0.621879 0.496504
vt 0.620116 0.498457
vt 0.620937 0.496500
vn 0.000000 0.000000 -1.000000
vn -0.076021 -0.144617 -0.986563
vn -0.141325 -0.023600 -0.989682
vn -0.081142 0.107579 -0.990880
vn -0.081142 0.107579 0.990880
vn -0.141325 -0.023600 0.989682
vn -0.076022 -0.144617 0.986563
vn -0.000000 0.000000 1.000000
vn 0.000000 -1.000000 0.000000
vn 0.000000 -1.000000 0.000000
vn 0.000000 -1.000000 0.000000
vn 0.000000 -1.000000 0.000000
vn 1.000000 0.000000 0.000000
vn 1.000000 0.000000 0.000000
vn 1.000000 0.000000 0.000000
vn 1.000000 0.000000 0.000000
vn -0.595855 0.794203 -0.119155
vn -0.717542 0.682862 -0.137232
vn -0.717542 0.682862 0.137232
vn -0.595855 0.794203 0.119155
vn -0.228842 -0.972150 0.050560
vn -0.584876 -0.801075 0.127275
vn -0.584876 -0.801075 -0.127275
vn -0.228842 -0.972150 -0.050560
vn -0.529033 0.704386 -0.473249
vn -0.618357 0.590030 -0.519134
vn -0.440872 0.586447 -0.679494
vn -0.497083 0.472097 -0.728033
vn -0.160804 0.213195 -0.963686
vn -0.203600 0.097159 -0.974221
vn -0.819887 0.552093 -0.151586
vn -0.819887 0.552093 0.151586
vn -0.983790 -0.088460 -0.155987
vn -0.983790 -0.088460 -0.155987
vn -0.983790 -0.088460 0.155986
vn -0.983790 -0.088460 0.155986
vn -0.708228 -0.689289 -0.152623
vn -0.708228 -0.689289 0.152623
vn -0.513221 -0.705410 -0.488877
vn -0.284553 -0.916003 -0.282787
vn -0.424549 -0.581997 -0.693569
vn -0.363217 -0.710682 -0.602498
vn -0.198612 -0.154401 -0.967840
vn -0.150000 -0.285347 -0.946614
vn -0.160804 0.213195 0.963686
vn -0.203600 0.097159 0.974221
vn -0.440872 0.586447 0.679493
vn -0.529033 0.704386 0.473249
vn -0.618357 0.590029 0.519134
vn -0.497084 0.472097 0.728033
vn -0.198613 -0.154401 0.967840
vn -0.150001 -0.285347 0.946613
vn -0.424548 -0.581997 0.693569
vn -0.513221 -0.705410 0.488877
vn -0.284553 -0.916003 0.282787
vn -0.363217 -0.710682 0.602498
vn 1.000000 0.000000 0.000000
vn 1.000000 0.000000 0.000000
vn 1.000000 0.000000 0.000000
vn 1.000000 0.000000 0.000000
vn 0.000000 -1.000000 0.000000
vn 0.000000 -1.000000 0.000000
vn 0.000000 -1.000000 0.000000
vn 0.000000 -1.000000 0.000000
vn -0.680615 -0.667653 -0.301667
vn -0.753986 -0.206151 -0.623704
vn -0.778874 0.070993 -0.623150
vn -0.788877 0.536539 -0.299667
vn -0.614160 -0.053298 -0.787380
vn -0.243260 -0.020374 -0.969747
vn -0.680615 -0.667652 0.301668
vn -0.753986 -0.206152 0.623704
vn -0.614160 -0.053300 0.787380
vn -0.243260 -0.020374 0.969747
vn -0.778874 0.070992 0.623149
vn -0.788877 0.536538 0.299666
vn 1.000000 0.000000 0.000000
vn 1.000000 0.000000 0.000000
vn 1.000000 0.000000 0.000000
vn 1.000000 0.000000 0.000000
s 1
g Edge_LargeSlope_Tile
usemtl initialShadingGroup
f 1/8/1 32/24/2 13/56/3 4/37/4
s 2
f 16/25/5 23/31/6 34/46/7 2/10/8
s off
f 2/10/9 34/46/10 32/5/11 1/6/12
s 4
f 16/3/13 4/37/14 3/2/15 17/40/16
s 5
f 3/11/17 10/16/18 26/30/19 17/7/20
f 33/35/21 20/62/22 7/19/23 29/9/24
f 3/11/17 6/12/25 11/54/26 10/16/18
f 6/13/25 5/15/27 12/55/28 11/14/26
s 1
f 5/15/29 4/37/4 13/56/3 12/55/30
s 5
f 10/16/18 9/52/31 27/70/32 26/30/19
f 9/52/33 8/17/34 28/71/35 27/70/36
f 8/49/37 7/19/23 20/62/22 28/18/38
f 7/19/23 15/20/39 30/21/40 29/9/24
f 15/58/39 14/57/41 31/22/42 30/23/40
s 1
f 14/57/43 13/56/3 32/24/2 31/22/44
s 2
f 16/25/5 19/26/45 24/68/46 23/31/6
s 5
f 19/27/47 18/29/48 25/69/49 24/28/50
f 18/29/48 17/7/20 26/30/19 25/69/49
s 2
f 23/31/6 22/66/51 35/32/52 34/46/7
s 5
f 22/66/53 21/33/54 36/34/55 35/32/56
f 21/63/54 20/62/22 33/35/21 36/36/55
s 4
f 3/2/15 4/37/14 5/38/57 6/39/58
f 16/3/13 17/40/16 18/41/59 19/42/60
s 5
f 29/43/24 30/44/40 31/45/61 32/5/62
f 33/4/21 34/46/63 35/47/64 36/48/55
f 15/20/39 7/19/23 8/49/37 37/50/65
f 37/51/66 8/17/34 9/52/33 38/53/67
f 9/52/31 10/16/18 11/54/26 38/53/68
f 38/60/67 11/14/26 12/55/28 39/61/69
s 1
f 12/55/30 13/56/3 14/57/43 39/61/70
s 5
f 39/61/69 14/57/41 15/58/39 37/59/66
f 37/59/66 38/60/67 39/61/69
f 28/18/38 20/62/22 21/63/54 40/64/71
f 40/65/72 21/33/54 22/66/53 41/67/73
s 2
f 22/66/51 23/31/6 24/68/46 41/67/74
s 5
f 41/73/73 24/28/50 25/69/49 42/74/75
f 25/69/49 26/30/19 27/70/32 42/74/76
f 42/74/75 27/70/36 28/71/35 40/72/72
f 40/72/72 41/73/73 42/74/75
s off
f 2/1/77 1/8/78 4/37/79 16/3/80
s 5
f 32/5/62 34/46/63 33/4/21 29/43/24
