# This file uses centimeters as units for non-parametric coordinates.

mtllib Edge_Flat_Tile.mtl
g default
v 2.000000 0.000000 -2.000000
v 2.000000 0.000000 2.000000
v 2.000000 4.000000 -1.800020
v 2.000000 3.800020 -2.000000
v 2.000000 3.900010 -1.973208
v 2.000000 3.973208 -1.900010
v -1.910566 3.821132 -1.800020
v -1.920782 3.902714 -1.800020
v -1.877558 3.972653 -1.800020
v -1.800020 4.000000 -1.800020
v -1.778924 3.970531 -1.907790
v -1.730054 3.896122 -1.977857
v -1.676426 3.800020 -2.000000
v -1.786351 3.805265 -1.977861
v -1.874763 3.815571 -1.907794
v 2.000000 3.800020 2.000000
v 2.000000 4.000000 1.800020
v 2.000000 3.973208 1.900010
v 2.000000 3.900010 1.973208
v -1.910566 3.821132 1.800020
v -1.874763 3.815571 1.907794
v -1.786351 3.805265 1.977861
v -1.676426 3.800020 2.000000
v -1.730054 3.896122 1.977857
v -1.778924 3.970531 1.907790
v -1.800020 4.000000 1.800020
v -1.877558 3.972653 1.800020
v -1.920782 3.902714 1.800020
v 0.000000 0.000000 -1.800020
v 0.026793 0.000000 -1.900010
v 0.099990 0.000000 -1.973208
v 0.199980 0.000000 -2.000000
v -0.000000 0.000000 1.800020
v 0.199980 0.000000 2.000000
v 0.099990 0.000000 1.973208
v 0.026793 0.000000 1.900010
v -1.888548 3.893615 -1.899854
v -1.854931 3.947991 -1.899829
v -1.825905 3.892553 -1.955788
v -1.888548 3.893615 1.899854
v -1.825905 3.892553 1.955788
v -1.854931 3.947991 1.899829
vt 0.125000 0.000000
vt 0.362501 0.250000
vt 0.125000 0.237501
vt 0.625000 0.762499
vt 0.600003 1.000000
vt 0.375000 1.000000
vt 0.375000 0.487501
vt 0.375000 0.000000
vt 0.637499 0.000000
vt 0.375000 0.750000
vt 0.375000 0.262499
vt 0.375000 0.256249
vt 0.375000 0.248325
vt 0.612104 0.248158
vt 0.375000 0.243751
vt 0.612501 0.262499
vt 0.620049 0.262499
vt 0.862501 0.243155
vt 0.637499 0.238821
vt 0.630763 0.237648
vt 0.631233 -0.000000
vt 0.612501 0.000000
vt 0.621651 0.000000
vt 0.600003 0.000000
vt 0.375000 0.512499
vt 0.375000 0.506249
vt 0.375000 0.498325
vt 0.608128 0.498616
vt 0.375000 0.493751
vt 0.612501 0.487501
vt 0.611026 0.512499
vt 0.612501 0.750000
vt 0.622936 0.511527
vt 0.621651 0.750000
vt 0.862501 0.000000
vt 0.868099 -0.000000
vt 0.375000 0.237501
vt 0.373325 0.243751
vt 0.368751 0.248325
vt 0.137499 0.250000
vt 0.131249 0.248325
vt 0.126675 0.243751
vt 0.625000 0.987501
vt 0.621651 0.993751
vt 0.612501 0.998325
vt 0.600003 0.750000
vt 0.612501 0.751675
vt 0.621651 0.756249
vt 0.637499 0.243155
vt 0.631259 0.241894
vt 0.618034 0.256259
vt 0.617347 0.262499
vt 0.615933 0.256261
vt 0.611183 0.255763
vt 0.611375 0.243508
vt 0.611026 0.237501
vt 0.617732 0.237829
vt 0.622936 0.238473
vt 0.621359 0.243351
vt 0.617558 0.246749
vt 0.617477 0.243285
vt 0.862501 0.238821
vt 0.869237 0.237648
vt 0.868741 0.241894
vt 0.621359 0.506649
vt 0.617732 0.512171
vt 0.617477 0.506715
vt 0.611375 0.506492
vt 0.611183 0.494237
vt 0.617347 0.487501
vt 0.620049 0.487501
vt 0.618034 0.493741
vt 0.614119 0.497237
vt 0.615933 0.493739
vn 0.000000 0.000000 -1.000000
vn -0.115072 -0.057231 -0.991707
vn -0.110432 0.065294 -0.991737
vn 0.000243 0.122036 -0.992526
vn 0.000243 0.122036 0.992526
vn -0.110433 0.065294 0.991737
vn -0.115072 -0.057231 0.991707
vn -0.000000 0.000000 1.000000
vn 0.000000 -1.000000 0.000000
vn 0.000000 -1.000000 0.000000
vn 0.000000 -1.000000 0.000000
vn 0.000000 -1.000000 0.000000
vn 1.000000 0.000000 0.000000
vn 1.000000 0.000000 0.000000
vn 1.000000 0.000000 0.000000
vn 1.000000 0.000000 0.000000
vn -0.000037 0.991270 -0.131848
vn -0.164269 0.975869 -0.143860
vn -0.164269 0.975869 0.143860
vn -0.000037 0.991270 0.131848
vn -0.887423 -0.443483 0.125711
vn -0.946723 -0.289615 0.140849
vn -0.946723 -0.289615 -0.140849
vn -0.887423 -0.443483 -0.125711
vn -0.000073 0.965232 -0.261394
vn -0.156410 0.945833 -0.284491
vn 0.000579 0.696576 -0.717483
vn 0.000579 0.696576 -0.717483
vn -0.113263 0.656130 -0.746100
vn -0.113263 0.656130 -0.746100
vn 0.000482 0.242248 -0.970214
vn -0.104142 0.186683 -0.976885
vn -0.324469 0.933611 -0.151954
vn -0.324469 0.933611 0.151955
vn -0.840286 0.519386 -0.155425
vn -0.840286 0.519386 -0.155425
vn -0.840286 0.519386 0.155424
vn -0.840286 0.519386 0.155424
vn -0.980139 -0.127181 -0.152161
vn -0.980139 -0.127182 0.152161
vn -0.811873 -0.248694 -0.528217
vn -0.779537 -0.389147 -0.490802
vn -0.646464 -0.195526 -0.737465
vn -0.639966 -0.319233 -0.698952
vn -0.219392 0.007545 -0.975608
vn -0.228235 -0.113512 -0.966966
vn 0.000482 0.242248 0.970214
vn -0.104142 0.186683 0.976885
vn 0.000579 0.696576 0.717483
vn 0.000579 0.696576 0.717483
vn -0.113263 0.656130 0.746100
vn -0.113263 0.656130 0.746100
vn -0.000073 0.965232 0.261394
vn -0.156410 0.945833 0.284491
vn -0.219392 0.007545 0.975608
vn -0.228235 -0.113512 0.966966
vn -0.646464 -0.195525 0.737465
vn -0.811873 -0.248694 0.528217
vn -0.779537 -0.389147 0.490802
vn -0.639966 -0.319233 0.698952
vn 1.000000 0.000000 0.000000
vn 1.000000 0.000000 0.000000
vn 1.000000 0.000000 0.000000
vn 1.000000 0.000000 0.000000
vn 1.000000 0.000000 0.000000
vn 1.000000 0.000000 0.000000
vn 1.000000 0.000000 0.000000
vn 1.000000 0.000000 0.000000
vn 0.000000 -1.000000 0.000000
vn 0.000000 -1.000000 0.000000
vn 0.000000 -1.000000 0.000000
vn 0.000000 -1.000000 0.000000
vn -0.945182 -0.127147 -0.300775
vn -0.728434 0.286184 -0.622481
vn -0.581394 0.524060 -0.622368
vn -0.308782 0.902457 -0.300376
vn -0.524649 0.324735 -0.786950
vn -0.207300 0.128490 -0.969803
vn -0.945181 -0.127148 0.300775
vn -0.728434 0.286184 0.622482
vn -0.524648 0.324735 0.786951
vn -0.207300 0.128490 0.969803
vn -0.581394 0.524061 0.622368
vn -0.308782 0.902456 0.300377
vn 0.000000 -1.000000 0.000000
vn 0.000000 -1.000000 0.000000
vn 0.000000 -1.000000 0.000000
vn 0.000000 -1.000000 0.000000
s 1
g Edge_Flat_Tile
usemtl initialShadingGroup
f 1/8/1 32/24/2 13/56/3 4/37/4
s 2
f 16/25/5 23/31/6 34/46/7 2/10/8
s 3
f 32/5/9 34/46/10 33/4/11 29/43/12
s off
f 2/1/13 1/8/14 4/37/15 16/3/16
s 5
f 3/11/17 10/16/18 26/30/19 17/7/20
s 6
f 33/35/21 20/62/22 7/19/23 29/9/24
s 5
f 3/11/17 6/12/25 11/54/26 10/16/18
s 6
f 6/13/27 5/15/28 12/55/29 11/14/30
s 1
f 5/15/31 4/37/4 13/56/3 12/55/32
s 5
f 10/16/18 9/52/33 27/70/34 26/30/19
s 6
f 9/52/35 8/17/36 28/71/37 27/70/38
f 8/49/39 7/19/23 20/62/22 28/18/40
f 7/19/23 15/20/41 30/21/42 29/9/24
f 15/58/41 14/57/43 31/22/44 30/23/42
s 1
f 14/57/45 13/56/3 32/24/2 31/22/46
s 2
f 16/25/5 19/26/47 24/68/48 23/31/6
s 6
f 19/27/49 18/29/50 25/69/51 24/28/52
s 5
f 18/29/53 17/7/20 26/30/19 25/69/54
s 2
f 23/31/6 22/66/55 35/32/56 34/46/7
s 6
f 22/66/57 21/33/58 36/34/59 35/32/60
f 21/63/58 20/62/22 33/35/21 36/36/59
s 7
f 3/2/61 4/37/62 5/38/63 6/39/64
f 16/3/65 17/40/66 18/41/67 19/42/68
s 3
f 29/43/12 30/44/69 31/45/70 32/5/9
f 33/4/11 34/46/10 35/47/71 36/48/72
s 6
f 15/20/41 7/19/23 8/49/39 37/50/73
f 37/51/74 8/17/36 9/52/35 38/53/75
s 5
f 9/52/33 10/16/18 11/54/26 38/53/76
s 6
f 38/60/75 11/14/30 12/55/29 39/61/77
s 1
f 12/55/32 13/56/3 14/57/45 39/61/78
s 6
f 39/61/77 14/57/43 15/58/41 37/59/74
f 37/59/74 38/60/75 39/61/77
f 28/18/40 20/62/22 21/63/58 40/64/79
f 40/65/80 21/33/58 22/66/57 41/67/81
s 2
f 22/66/55 23/31/6 24/68/48 41/67/82
s 6
f 41/73/81 24/28/52 25/69/51 42/74/83
s 5
f 25/69/54 26/30/19 27/70/34 42/74/84
s 6
f 42/74/83 27/70/38 28/71/37 40/72/80
f 40/72/80 41/73/81 42/74/83
s off
f 2/10/85 34/46/86 32/5/87 1/6/88
s 7
f 16/3/65 4/37/62 3/2/61 17/40/66
