# This file uses centimeters as units for non-parametric coordinates.

mtllib HalfBlock_Tile.mtl
g default
v 2.000000 0.000000 -2.000000
v 2.000000 4.000000 -2.000000
v 2.000000 4.000000 2.000000
v 2.000000 0.000000 2.000000
v 0.000000 0.000000 -1.800020
v 0.026793 0.000000 -1.900010
v 0.099989 0.000000 -1.973208
v 0.199980 0.000000 -2.000000
v 0.000000 4.000000 -1.800020
v 0.199980 4.000000 -2.000000
v 0.099989 4.000000 -1.973208
v 0.026793 4.000000 -1.900010
v 0.026793 4.000000 1.900010
v 0.099989 4.000000 1.973208
v 0.199980 4.000000 2.000000
v -0.000000 4.000000 1.800020
v -0.000000 0.000000 1.800020
v 0.199980 0.000000 2.000000
v 0.099989 0.000000 1.973208
v 0.026793 0.000000 1.900010
vt 0.375000 0.250000
vt 0.125000 0.000000
vt 0.125000 0.250000
vt 0.625000 0.262499
vt 0.375000 0.500000
vt 0.625000 0.762499
vt 0.600003 1.000000
vt 0.375000 1.000000
vt 0.375000 0.000000
vt 0.375000 0.750000
vt 0.637499 0.000000
vt 0.862501 0.250000
vt 0.600003 0.000000
vt 0.612501 0.250000
vt 0.612501 0.000000
vt 0.621651 0.000000
vt 0.621651 0.250000
vt 0.631249 0.000000
vt 0.637499 0.250000
vt 0.631249 0.250000
vt 0.600003 0.500000
vt 0.612501 0.750000
vt 0.612501 0.500000
vt 0.621651 0.500000
vt 0.621651 0.750000
vt 0.868751 0.250000
vt 0.862501 0.000000
vt 0.868751 0.000000
vt 0.625000 0.987501
vt 0.621651 0.993751
vt 0.612501 0.998325
vt 0.600003 0.250000
vt 0.612501 0.251675
vt 0.621651 0.256249
vt 0.621651 0.493751
vt 0.612501 0.498325
vt 0.625000 0.487501
vt 0.600003 0.750000
vt 0.612501 0.751675
vt 0.621651 0.756249
vn 0.000000 0.000000 -1.000000
vn -0.130525 0.000000 -0.991445
vn -0.130525 0.000000 -0.991445
vn 0.000000 0.000000 -1.000000
vn 0.000000 1.000000 -0.000000
vn 0.000000 1.000000 -0.000000
vn 0.000000 1.000000 -0.000000
vn 0.000000 1.000000 -0.000000
vn -0.000000 0.000000 1.000000
vn -0.130525 0.000000 0.991445
vn -0.130525 0.000000 0.991445
vn -0.000000 0.000000 1.000000
vn 0.000000 -1.000000 0.000000
vn 0.000000 -1.000000 0.000000
vn 0.000000 -1.000000 0.000000
vn 0.000000 -1.000000 0.000000
vn -0.991445 0.000000 -0.130528
vn -0.991445 0.000000 -0.130528
vn -0.991445 0.000000 0.130528
vn -0.991445 0.000000 0.130528
vn 1.000000 0.000000 0.000000
vn 1.000000 0.000000 0.000000
vn 1.000000 0.000000 0.000000
vn 1.000000 0.000000 0.000000
vn -0.258817 0.000000 -0.965926
vn -0.258817 0.000000 -0.965926
vn -0.707113 0.000000 -0.707100
vn -0.866027 0.000000 -0.499997
vn -0.866027 0.000000 -0.499997
vn -0.707113 0.000000 -0.707100
vn -0.258817 0.000000 0.965926
vn -0.258817 0.000000 0.965926
vn -0.707113 0.000000 0.707100
vn -0.866027 0.000000 0.499997
vn -0.866027 0.000000 0.499997
vn -0.707113 0.000000 0.707100
vn 0.000000 -1.000000 0.000000
vn 0.000000 -1.000000 0.000000
vn 0.000000 -1.000000 0.000000
vn 0.000000 -1.000000 0.000000
vn 0.000000 1.000000 -0.000000
vn 0.000000 1.000000 -0.000000
vn 0.000000 1.000000 -0.000000
vn 0.000000 1.000000 -0.000000
vn 0.000000 -1.000000 0.000000
vn 0.000000 -1.000000 0.000000
vn 0.000000 -1.000000 0.000000
vn 0.000000 -1.000000 0.000000
vn 0.000000 1.000000 -0.000000
vn 0.000000 1.000000 -0.000000
vn 0.000000 1.000000 -0.000000
vn 0.000000 1.000000 -0.000000
s 1
g HalfBlock_Tile
usemtl initialShadingGroup
f 1/9/1 8/13/2 10/32/3 2/1/4
s 2
f 15/21/5 10/32/6 9/4/7 16/37/8
s 3
f 3/5/9 15/21/10 18/38/11 4/10/12
s off
f 4/10/13 18/38/14 8/7/15 1/8/16
s 5
f 9/19/17 5/11/18 17/27/19 16/12/20
s off
f 4/2/21 1/9/22 2/1/23 3/3/24
s 1
f 8/13/2 7/15/25 11/14/26 10/32/3
s 5
f 7/15/27 6/16/28 12/17/29 11/14/30
f 6/18/28 5/11/18 9/19/17 12/20/29
s 3
f 15/21/10 14/23/31 19/22/32 18/38/11
s 5
f 14/23/33 13/24/34 20/25/35 19/22/36
f 13/26/34 16/12/20 17/27/19 20/28/35
s 7
f 5/29/37 6/30/38 7/31/39 8/7/40
s 2
f 9/4/7 10/32/6 11/33/41 12/34/42
f 13/35/43 14/36/44 15/21/5 16/37/8
s 7
f 17/6/45 18/38/46 19/39/47 20/40/48
f 8/7/40 18/38/46 17/6/45 5/29/37
s off
f 2/1/49 10/32/50 15/21/51 3/5/52
