# This file uses centimeters as units for non-parametric coordinates.

mtllib LargeSlope_Tile.mtl
g default
v 2.000000 0.000000 -2.000000
v -2.000000 0.000000 -2.000000
v -2.000000 0.900010 -2.000000
v 2.000000 3.800020 -2.000000
v 2.000000 4.000000 -1.800020
v -2.000000 1.099990 -1.800020
v -2.000000 1.099990 1.800020
v 2.000000 4.000000 1.800020
v 2.000000 3.800020 2.000000
v -2.000000 0.900010 2.000000
v -2.000000 0.000000 2.000000
v 2.000000 0.000000 2.000000
v 2.000000 3.973208 -1.900010
v -2.000000 1.073198 -1.900010
v 2.000000 3.900010 -1.973208
v -2.000000 1.000000 -1.973208
v 2.000000 3.900010 1.973208
v -2.000000 1.000000 1.973208
v 2.000000 3.973208 1.900010
v -2.000000 1.073198 1.900010
vt 0.375000 0.000000
vt 0.625000 0.000000
vt 0.625000 0.225003
vt 0.375000 0.237501
vt 0.375000 0.262499
vt 0.625000 0.262499
vt 0.625000 0.487501
vt 0.375000 0.487501
vt 0.375000 0.512499
vt 0.625000 0.524997
vt 0.625000 0.750000
vt 0.375000 0.750000
vt 0.625000 1.000000
vt 0.375000 1.000000
vt 0.875000 0.000000
vt 0.875000 0.225002
vt 0.125000 0.000000
vt 0.125000 0.237501
vt 0.375670 0.256249
vt 0.625000 0.256901
vt 0.375000 0.248325
vt 0.375000 0.243751
vt 0.625000 0.237501
vt 0.625000 0.246651
vt 0.375000 0.506249
vt 0.625000 0.512499
vt 0.377500 0.498325
vt 0.375670 0.493751
vt 0.625000 0.493767
vt 0.625000 0.498342
vt 0.362501 0.250000
vt 0.373325 0.243751
vt 0.368751 0.248325
vt 0.637499 0.250000
vt 0.631249 0.246651
vt 0.626675 0.237501
vt 0.137499 0.250000
vt 0.131249 0.248325
vt 0.126675 0.243751
vt 0.873325 0.237501
vt 0.868751 0.246651
vt 0.862501 0.250000
vn 0.000000 0.000000 -1.000000
vn 0.000000 0.000000 -1.000000
vn -0.093403 0.128831 -0.987258
vn -0.093403 0.128831 -0.987258
vn -0.583624 0.804995 -0.106609
vn -0.583624 0.804995 -0.106609
vn -0.583624 0.804995 0.106609
vn -0.583624 0.804995 0.106609
vn -0.093403 0.128831 0.987258
vn -0.093403 0.128831 0.987258
vn 0.000000 0.000000 1.000000
vn 0.000000 0.000000 1.000000
vn 0.000000 -1.000000 0.000000
vn 0.000000 -1.000000 0.000000
vn 0.000000 -1.000000 0.000000
vn 0.000000 -1.000000 0.000000
vn -1.000000 0.000000 -0.000000
vn -1.000000 0.000000 -0.000000
vn -1.000000 0.000000 -0.000000
vn -1.000000 0.000000 -0.000000
vn 1.000000 0.000000 0.000000
vn 1.000000 0.000000 0.000000
vn 1.000000 0.000000 0.000000
vn 1.000000 0.000000 0.000000
vn -0.583624 0.804995 -0.106609
vn -0.529273 0.730029 -0.432351
vn -0.529273 0.730029 -0.432351
vn -0.583624 0.804995 -0.106609
vn -0.529273 0.730029 -0.432351
vn -0.456199 0.629239 -0.629238
vn -0.456199 0.629239 -0.629238
vn -0.529273 0.730029 -0.432351
vn -0.184427 0.254380 -0.949356
vn -0.093403 0.128831 -0.987258
vn -0.093403 0.128831 -0.987258
vn -0.184427 0.254380 -0.949356
vn -0.093403 0.128831 0.987258
vn -0.184427 0.254380 0.949356
vn -0.184427 0.254380 0.949356
vn -0.093403 0.128831 0.987258
vn -0.456199 0.629239 0.629238
vn -0.529273 0.730029 0.432351
vn -0.529273 0.730029 0.432351
vn -0.456199 0.629239 0.629238
vn -0.529273 0.730029 0.432351
vn -0.583624 0.804995 0.106609
vn -0.583624 0.804995 0.106609
vn -0.529273 0.730029 0.432351
vn 1.000000 0.000000 0.000000
vn 1.000000 0.000000 0.000000
vn 1.000000 0.000000 0.000000
vn 1.000000 0.000000 0.000000
vn -1.000000 0.000000 -0.000000
vn -1.000000 0.000000 -0.000000
vn -1.000000 0.000000 -0.000000
vn -1.000000 0.000000 -0.000000
vn 1.000000 0.000000 0.000000
vn 1.000000 0.000000 0.000000
vn 1.000000 0.000000 0.000000
vn 1.000000 0.000000 0.000000
vn -1.000000 0.000000 -0.000000
vn -1.000000 0.000000 -0.000000
vn -1.000000 0.000000 -0.000000
vn -1.000000 0.000000 -0.000000
vn 1.000000 0.000000 0.000000
vn 1.000000 0.000000 0.000000
vn 1.000000 0.000000 0.000000
vn 1.000000 0.000000 0.000000
vn -1.000000 0.000000 -0.000000
vn -1.000000 0.000000 -0.000000
vn -1.000000 0.000000 -0.000000
vn -1.000000 0.000000 -0.000000
s off
g LargeSlope_Tile
usemtl LargeSlope_Tile_initialShadingGroup
f 1/1/1 2/2/2 3/3/3 4/4/4
f 5/5/5 6/6/6 7/7/7 8/8/8
f 9/9/9 10/10/10 11/11/11 12/12/12
f 12/12/13 11/11/14 2/13/15 1/14/16
f 2/2/17 11/15/18 10/16/19 3/3/20
f 12/17/21 1/1/22 4/4/23 9/18/24
f 5/5/25 13/19/26 14/20/27 6/6/28
f 13/21/29 15/22/30 16/23/31 14/24/32
f 15/22/33 4/4/34 3/3/35 16/23/36
f 9/9/37 17/25/38 18/26/39 10/10/40
f 17/27/41 19/28/42 20/29/43 18/30/44
f 19/28/45 8/8/46 7/7/47 20/29/48
f 5/31/49 4/4/50 15/32/51 13/33/52
f 6/34/53 14/35/54 16/36/55 3/3/56
f 9/18/57 8/37/58 19/38/59 17/39/60
f 10/16/61 18/40/62 20/41/63 7/42/64
f 9/18/65 4/4/66 5/31/67 8/37/68
f 3/3/69 10/16/70 7/42/71 6/34/72
