# 3ds Max Wavefront OBJ Exporter v0.97b - (c)2007 guruware
# File Created: 20.04.2014 13:12:37

#
# object Left_block_small
#

v  -120.0000 -0.0000 136.0000
v  -120.0000 -0.0000 104.0000
v  -119.7500 -0.0000 102.2500
v  -119.0000 -0.0000 101.0000
v  -117.7500 -0.0000 100.2500
v  -116.0000 -0.0000 100.0000
v  -80.0000 -0.0000 100.0000
v  -80.0000 -0.0000 140.0000
v  -119.7500 -0.0000 137.7500
v  -119.0000 -0.0000 139.0000
v  -117.7500 -0.0000 139.7500
v  -116.0000 -0.0000 140.0000
v  -116.0000 10.0000 136.0000
v  -80.0000 10.0000 136.0000
v  -80.0000 10.0000 104.0000
v  -116.0000 10.0000 104.0000
v  -80.0000 6.0000 140.0000
v  -116.0000 6.0000 140.0000
v  -80.0000 6.0000 100.0000
v  -80.0000 7.7500 100.2500
v  -80.0000 9.0000 101.0000
v  -80.0000 9.7500 102.2500
v  -80.0000 9.7500 137.7500
v  -80.0000 9.0000 139.0000
v  -80.0000 7.7500 139.7500
v  -116.0000 6.0000 100.0000
v  -120.0000 6.0000 136.0000
v  -120.0000 6.0000 104.0000
v  -117.6406 6.7656 139.7500
v  -117.7500 6.0000 139.7500
v  -119.7500 6.7656 102.3594
v  -119.7500 6.0000 102.2500
v  -116.0000 9.7500 137.7500
v  -116.0000 9.7500 102.2500
v  -117.7500 9.7500 136.0000
v  -117.7500 9.7500 104.0000
v  -117.7500 6.0000 100.2500
v  -116.0000 7.7500 139.7500
v  -116.7656 7.6406 139.7500
v  -117.3125 8.8125 139.0000
v  -116.0000 9.0000 139.0000
v  -117.6406 9.5156 137.7500
v  -117.3125 7.3125 139.7500
v  -118.2500 8.2500 139.0000
v  -118.8125 8.8125 137.7500
v  -119.0000 9.0000 136.0000
v  -118.8125 7.3125 139.0000
v  -119.5156 7.6406 137.7500
v  -119.7500 7.7500 136.0000
v  -119.0000 6.0000 139.0000
v  -119.7500 6.0000 137.7500
v  -119.7500 7.7500 104.0000
v  -119.7500 7.6406 103.2344
v  -119.0000 8.8125 102.6875
v  -119.0000 9.0000 104.0000
v  -117.7500 9.5156 102.3594
v  -119.7500 7.3125 102.6875
v  -119.0000 8.2500 101.7500
v  -117.7500 8.8125 101.1875
v  -116.0000 9.0000 101.0000
v  -119.0000 7.3125 101.1875
v  -117.7500 7.6406 100.4844
v  -116.0000 7.7500 100.2500
v  -119.0000 6.0000 101.0000
# 64 vertices

vn 0.0000 -1.0000 -0.0000
vn -0.0705 0.9950 0.0705
vn 0.0000 0.9975 0.0709
vn 0.0000 0.9975 -0.0709
vn -0.0705 0.9950 -0.0705
vn -0.0709 0.0000 0.9975
vn 0.0000 0.0000 1.0000
vn 0.0000 0.0709 0.9975
vn -0.0572 0.0572 0.9967
vn 1.0000 0.0000 -0.0000
vn 0.0000 0.0000 -1.0000
vn -0.0709 0.0000 -0.9975
vn -0.0705 0.0705 -0.9950
vn 0.0000 0.0709 -0.9975
vn -0.9975 0.0000 -0.0709
vn -0.9975 0.0000 0.0709
vn -0.9950 0.0705 0.0705
vn -0.9967 0.0572 -0.0572
vn -0.3293 0.1138 0.9374
vn -0.3423 0.0249 0.9393
vn -0.9374 0.1138 -0.3293
vn -0.9393 0.0249 -0.3423
vn 0.0000 0.9424 0.3346
vn -0.0664 0.9412 0.3311
vn -0.0723 0.9396 -0.3345
vn 0.0000 0.9424 -0.3346
vn -0.3345 0.9396 0.0723
vn -0.3311 0.9412 -0.0664
vn -0.3346 0.0000 0.9424
vn -0.3311 0.0664 -0.9412
vn -0.3346 0.0000 -0.9424
vn -0.0249 0.3423 0.9393
vn -0.1138 0.3293 0.9374
vn -0.2374 0.6723 0.7012
vn -0.0507 0.7115 0.7009
vn -0.3166 0.8875 0.3348
vn -0.2437 0.2437 0.9387
vn -0.5001 0.5001 0.7069
vn -0.6648 0.6648 0.3409
vn -0.7052 0.7052 0.0743
vn -0.6723 0.2374 0.7012
vn -0.8875 0.3166 0.3348
vn -0.9396 0.3345 0.0723
vn -0.7115 0.0507 0.7009
vn -0.9412 0.0664 0.3311
vn -0.9393 0.3423 -0.0249
vn -0.9374 0.3293 -0.1138
vn -0.7012 0.6723 -0.2374
vn -0.7009 0.7115 -0.0507
vn -0.3348 0.8875 -0.3166
vn -0.9387 0.2437 -0.2437
vn -0.7069 0.5001 -0.5001
vn -0.3409 0.6648 -0.6648
vn -0.0743 0.7052 -0.7052
vn -0.7012 0.2374 -0.6723
vn -0.3348 0.3166 -0.8875
vn -0.0723 0.3345 -0.9396
vn -0.7009 0.0507 -0.7115
vn 0.0000 0.7071 0.7071
vn 0.0000 0.3346 0.9424
vn 0.0000 0.7071 -0.7071
vn 0.0000 0.3346 -0.9424
vn -0.7071 0.0000 0.7071
vn -0.9424 0.0000 0.3346
vn -0.7071 0.0000 -0.7071
vn -0.9424 0.0000 -0.3346
# 66 vertex normals

vt 1.0000 0.1000 0.0000
vt 1.0000 0.9000 0.0000
vt 0.9937 0.9438 0.0000
vt 0.9750 0.9750 0.0000
vt 0.9438 0.9937 0.0000
vt 0.9000 1.0000 0.0000
vt 0.0000 1.0000 0.0000
vt 0.0000 0.0000 0.0000
vt 0.9937 0.0563 0.0000
vt 0.9750 0.0250 0.0000
vt 0.9438 0.0063 0.0000
vt 0.9000 0.0000 0.0000
vt 0.1000 0.1000 0.0000
vt 0.1000 0.9000 0.0000
vt 0.1000 0.0000 0.0000
vt 1.0000 0.0000 0.0000
vt 0.0000 0.9000 0.0000
vt 0.1000 1.0000 0.0000
vt 0.0563 0.9937 0.0000
vt 0.0250 0.9750 0.0000
vt 0.0063 0.9438 0.0000
vt 0.9000 0.9000 0.0000
vt 1.0275 1.0025 0.0000
vt 1.0366 1.0366 0.0000
vt 0.1366 1.0366 0.0000
vt 0.1275 1.0025 0.0000
vt 0.8725 1.0025 0.0000
vt 0.8634 1.0366 0.0000
vt -0.0366 1.0366 0.0000
vt -0.0275 1.0025 0.0000
vt 0.9000 0.7939 0.0000
vt 0.9000 0.7586 0.0000
vt 0.1000 0.7586 0.0000
vt 0.1000 0.7939 0.0000
vt 1.0025 -0.0275 0.0000
vt 1.0366 -0.0366 0.0000
vt 1.0366 0.8634 0.0000
vt 1.0025 0.8725 0.0000
vt -0.0025 0.8725 0.0000
vt -0.0366 0.8634 0.0000
vt -0.0366 -0.0366 0.0000
vt -0.0025 -0.0275 0.0000
vt 0.0548 0.9419 0.0000
vt 0.0194 0.9677 0.0000
vt -0.0064 0.9773 0.0000
vt -0.0140 0.9729 0.0000
vt -0.0225 0.9707 0.0000
vt -0.0112 0.9500 0.0000
vt -0.0140 0.9021 0.0000
vt -0.0225 0.8293 0.0000
vt 1.0183 0.9683 0.0000
vt 0.1183 0.9683 0.0000
vt 1.0092 0.9342 0.0000
vt 0.1092 0.9342 0.0000
vt 0.8817 0.9683 0.0000
vt -0.0183 0.9683 0.0000
vt 0.8908 0.9342 0.0000
vt -0.0092 0.9342 0.0000
vt 0.9000 0.8293 0.0000
vt 0.1000 0.8293 0.0000
vt 0.9000 0.8646 0.0000
vt 0.1000 0.8646 0.0000
vt 0.9683 -0.0183 0.0000
vt 0.9683 0.8817 0.0000
vt 0.9342 -0.0092 0.0000
vt 0.9342 0.8908 0.0000
vt 0.0317 0.8817 0.0000
vt 0.0317 -0.0183 0.0000
vt 0.0658 0.8908 0.0000
vt 0.0658 -0.0092 0.0000
# 70 texture coords

g Left_block_small
s 1
f 1/1/1 2/2/1 3/3/1 4/4/1 
f 1/1/1 4/4/1 5/5/1 6/6/1 
f 1/1/1 6/6/1 7/7/1 8/8/1 
f 9/9/1 1/1/1 8/8/1 10/10/1 
f 11/11/1 10/10/1 8/8/1 12/12/1 
s 2
f 13/13/2 14/1/3 15/2/4 16/14/5 
f 12/15/6 8/16/7 17/2/8 18/14/9 
s 4
f 7/16/10 19/2/10 20/3/10 21/4/10 
f 7/16/10 21/4/10 22/5/10 15/6/10 
f 8/8/10 7/16/10 15/6/10 17/17/10 
f 15/6/10 14/18/10 23/19/10 24/20/10 
f 15/6/10 24/20/10 25/21/10 17/17/10 
s 2
f 7/8/11 6/12/12 26/22/13 19/17/14 
f 2/15/15 1/12/16 27/22/17 28/14/18 
f 18/14/9 29/7/19 30/7/20 
f 28/14/18 31/7/21 32/7/22 
f 23/23/23 14/24/3 13/25/2 33/26/24 
f 34/27/25 16/28/5 15/29/4 22/30/26 
f 35/31/27 13/32/2 16/33/5 36/34/28 
f 11/35/29 12/36/6 18/37/9 30/38/20 
f 37/39/30 26/40/13 6/41/12 5/42/31 
f 18/14/9 38/43/32 39/7/33 
f 40/7/34 39/7/33 38/43/32 41/44/35 
f 42/7/36 40/7/34 41/44/35 33/45/24 
f 35/46/27 42/7/36 33/45/24 13/47/2 
f 18/14/9 39/7/33 43/7/37 
f 44/7/38 43/7/37 39/7/33 40/7/34 
f 45/7/39 44/7/38 40/7/34 42/7/36 
f 46/48/40 45/7/39 42/7/36 35/46/27 
f 18/14/9 43/7/37 29/7/19 
f 47/7/41 29/7/19 43/7/37 44/7/38 
f 48/7/42 47/7/41 44/7/38 45/7/39 
f 49/49/43 48/7/42 45/7/39 46/48/40 
f 50/7/44 30/7/20 29/7/19 47/7/41 
f 51/7/45 50/7/44 47/7/41 48/7/42 
f 27/50/17 51/7/45 48/7/42 49/49/43 
f 28/14/18 52/43/46 53/7/47 
f 54/7/48 53/7/47 52/43/46 55/44/49 
f 56/7/50 54/7/48 55/44/49 36/45/28 
f 34/46/25 56/7/50 36/45/28 16/47/5 
f 28/14/18 53/7/47 57/7/51 
f 58/7/52 57/7/51 53/7/47 54/7/48 
f 59/7/53 58/7/52 54/7/48 56/7/50 
f 60/48/54 59/7/53 56/7/50 34/46/25 
f 28/14/18 57/7/51 31/7/21 
f 61/7/55 31/7/21 57/7/51 58/7/52 
f 62/7/56 61/7/55 58/7/52 59/7/53 
f 63/49/57 62/7/56 59/7/53 60/48/54 
f 64/7/58 32/7/22 31/7/21 61/7/55 
f 37/7/30 64/7/58 61/7/55 62/7/56 
f 26/50/13 37/7/30 62/7/56 63/49/57 
f 24/51/59 23/23/23 33/26/24 41/52/35 
f 25/53/60 24/51/59 41/52/35 38/54/32 
f 17/2/8 25/53/60 38/54/32 18/14/9 
f 60/55/54 34/27/25 22/30/26 21/56/61 
f 63/57/57 60/55/54 21/56/61 20/58/62 
f 26/22/13 63/57/57 20/58/62 19/17/14 
f 46/59/40 35/31/27 36/34/28 55/60/49 
f 49/61/43 46/59/40 55/60/49 52/62/46 
f 27/22/17 49/61/43 52/62/46 28/14/18 
f 10/63/63 11/35/29 30/38/20 50/64/44 
f 9/65/64 10/63/63 50/64/44 51/66/45 
f 1/12/16 9/65/64 51/66/45 27/22/17 
f 64/67/58 37/39/30 5/42/31 4/68/65 
f 32/69/22 64/67/58 4/68/65 3/70/66 
f 28/14/18 32/69/22 3/70/66 2/15/15 
# 58 polygons - 8 triangles

