# 3ds Max Wavefront OBJ Exporter v0.97b - (c)2007 guruware
# File Created: 20.04.2014 13:14:21

#
# object Midt_block_full
#

v  -70.0000 0.0000 -40.0000
v  -70.0000 0.0000 -80.0000
v  -30.0000 0.0000 -80.0000
v  -30.0000 0.0000 -40.0000
v  -70.0000 40.0000 -44.0000
v  -30.0000 40.0000 -44.0000
v  -30.0000 40.0000 -76.0000
v  -70.0000 40.0000 -76.0000
v  -30.0000 36.0000 -40.0000
v  -70.0000 36.0000 -40.0000
v  -30.0000 36.0000 -80.0000
v  -30.0000 37.7500 -79.7500
v  -30.0000 39.0000 -79.0000
v  -30.0000 39.7500 -77.7500
v  -30.0000 39.7500 -42.2500
v  -30.0000 39.0000 -41.0000
v  -30.0000 37.7500 -40.2500
v  -70.0000 36.0000 -80.0000
v  -70.0000 37.7500 -40.2500
v  -70.0000 39.0000 -41.0000
v  -70.0000 39.7500 -42.2500
v  -70.0000 39.7500 -77.7500
v  -70.0000 39.0000 -79.0000
v  -70.0000 37.7500 -79.7500
# 24 vertices

vn 0.0000 -1.0000 -0.0000
vn 0.0000 0.9975 0.0709
vn 0.0000 0.9975 -0.0709
vn 0.0000 0.0000 1.0000
vn 0.0000 0.0709 0.9975
vn 1.0000 0.0000 -0.0000
vn 0.0000 0.0000 -1.0000
vn 0.0000 0.0709 -0.9975
vn -1.0000 0.0000 -0.0000
vn 0.0000 0.9424 0.3346
vn 0.0000 0.9424 -0.3346
vn 0.0000 0.7071 0.7071
vn 0.0000 0.3346 0.9424
vn 0.0000 0.7071 -0.7071
vn 0.0000 0.3346 -0.9424
# 15 vertex normals

vt 1.0000 0.0000 0.0000
vt 1.0000 1.0000 0.0000
vt 0.0000 1.0000 0.0000
vt 0.0000 0.0000 0.0000
vt 0.0000 0.1000 0.0000
vt 1.0000 0.1000 0.0000
vt 1.0000 0.9000 0.0000
vt 0.0000 0.9000 0.0000
vt 0.9937 0.9438 0.0000
vt 0.9750 0.9750 0.0000
vt 0.9438 0.9937 0.0000
vt 0.9000 1.0000 0.0000
vt 0.1000 1.0000 0.0000
vt 0.0563 0.9937 0.0000
vt 0.0250 0.9750 0.0000
vt 0.0063 0.9438 0.0000
vt 1.0000 1.0061 0.0000
vt 1.0000 1.0414 0.0000
vt 0.0000 1.0414 0.0000
vt 0.0000 1.0061 0.0000
vt 1.0000 0.9707 0.0000
vt 0.0000 0.9707 0.0000
vt 1.0000 0.9354 0.0000
vt 0.0000 0.9354 0.0000
# 24 texture coords

g Midt_block_full
s 1
f 1/1/1 2/2/1 3/3/1 4/4/1 
s 2
f 5/5/2 6/6/2 7/7/3 8/8/3 
f 1/4/4 4/1/4 9/7/5 10/8/5 
s 4
f 3/1/6 11/7/6 12/9/6 13/10/6 
f 3/1/6 13/10/6 14/11/6 7/12/6 
f 4/4/6 3/1/6 7/12/6 9/8/6 
f 7/12/6 6/13/6 15/14/6 16/15/6 
f 7/12/6 16/15/6 17/16/6 9/8/6 
s 2
f 3/4/7 2/1/7 18/7/8 11/8/8 
s 4
f 1/1/9 10/7/9 19/9/9 20/10/9 
f 1/1/9 20/10/9 21/11/9 5/12/9 
f 2/4/9 1/1/9 5/12/9 18/8/9 
f 5/12/9 8/13/9 22/14/9 23/15/9 
f 5/12/9 23/15/9 24/16/9 18/8/9 
s 2
f 15/17/10 6/18/2 5/19/2 21/20/10 
f 22/17/11 8/18/3 7/19/3 14/20/11 
f 16/21/12 15/17/10 21/20/10 20/22/12 
f 17/23/13 16/21/12 20/22/12 19/24/13 
f 9/7/5 17/23/13 19/24/13 10/8/5 
f 23/21/14 22/17/11 14/20/11 13/22/14 
f 24/23/15 23/21/14 13/22/14 12/24/15 
f 18/7/8 24/23/15 12/24/15 11/8/8 
# 22 polygons

