# 3ds Max Wavefront OBJ Exporter v0.97b - (c)2007 guruware
# File Created: 20.04.2014 13:19:12

#
# object Midt_block_half_slope_left
#

v  -20.0000 -0.0000 80.0000
v  -20.0000 -0.0000 40.0000
v  20.0000 -0.0000 40.0000
v  20.0000 -0.0000 80.0000
v  -20.0000 20.0000 76.0000
v  20.0000 30.0000 76.0000
v  20.0000 30.0000 44.0000
v  -20.0000 20.0000 44.0000
v  20.0000 26.0000 80.0000
v  -20.0000 16.0000 80.0000
v  20.0000 26.0000 40.0000
v  20.0000 27.7500 40.2500
v  20.0000 29.0000 41.0000
v  20.0000 29.7500 42.2500
v  20.0000 29.7500 77.7500
v  20.0000 29.0000 79.0000
v  20.0000 27.7500 79.7500
v  -20.0000 16.0000 40.0000
v  -20.0000 17.7500 79.7500
v  -20.0000 19.0000 79.0000
v  -20.0000 19.7500 77.7500
v  -20.0000 19.7500 42.2500
v  -20.0000 19.0000 41.0000
v  -20.0000 17.7500 40.2500
# 24 vertices

vn 0.0000 -1.0000 -0.0000
vn -0.2419 0.9678 0.0695
vn -0.2420 0.9679 0.0680
vn -0.2420 0.9679 -0.0680
vn -0.2419 0.9678 -0.0695
vn 0.0000 0.0000 1.0000
vn -0.0205 0.0819 0.9964
vn -0.0150 0.0599 0.9981
vn 1.0000 0.0000 -0.0000
vn 0.0000 0.0000 -1.0000
vn -0.0150 0.0599 -0.9981
vn -0.0205 0.0819 -0.9964
vn -1.0000 0.0000 -0.0000
vn -0.2301 0.9202 0.3166
vn -0.2285 0.9139 0.3355
vn -0.2285 0.9139 -0.3355
vn -0.2301 0.9202 -0.3166
vn -0.1783 0.7133 0.6777
vn -0.1693 0.6773 0.7159
vn -0.0900 0.3599 0.9286
vn -0.0764 0.3057 0.9490
vn -0.1693 0.6773 -0.7159
vn -0.1783 0.7133 -0.6777
vn -0.0764 0.3057 -0.9490
vn -0.0900 0.3599 -0.9286
# 25 vertex normals

vt 1.0000 0.0000 0.0000
vt 1.0000 1.0000 0.0000
vt 0.0000 1.0000 0.0000
vt 0.0000 0.0000 0.0000
vt 0.0000 0.1000 0.0000
vt 1.0000 0.1000 0.0000
vt 1.0000 0.9000 0.0000
vt 0.0000 0.9000 0.0000
vt 0.9937 0.9438 0.0000
vt 0.9750 0.9750 0.0000
vt 0.9438 0.9937 0.0000
vt 0.9000 1.0000 0.0000
vt 0.1000 1.0000 0.0000
vt 0.0563 0.9937 0.0000
vt 0.0250 0.9750 0.0000
vt 0.0063 0.9438 0.0000
vt 1.0000 1.0061 0.0000
vt 1.0000 1.0414 0.0000
vt 0.0000 1.0414 0.0000
vt 0.0000 1.0061 0.0000
vt 1.0000 0.9707 0.0000
vt 0.0000 0.9707 0.0000
vt 1.0000 0.9354 0.0000
vt 0.0000 0.9354 0.0000
# 24 texture coords

g Midt_block_half_slope_left
s 1
f 1/1/1 2/2/1 3/3/1 4/4/1 
s 2
f 5/5/2 6/6/3 7/7/4 8/8/5 
f 1/4/6 4/1/6 9/7/7 10/8/8 
s 4
f 3/1/9 11/7/9 12/9/9 13/10/9 
f 3/1/9 13/10/9 14/11/9 7/12/9 
f 4/4/9 3/1/9 7/12/9 9/8/9 
f 7/12/9 6/13/9 15/14/9 16/15/9 
f 7/12/9 16/15/9 17/16/9 9/8/9 
s 2
f 3/4/10 2/1/10 18/7/11 11/8/12 
s 4
f 1/1/13 10/7/13 19/9/13 20/10/13 
f 1/1/13 20/10/13 21/11/13 5/12/13 
f 2/4/13 1/1/13 5/12/13 18/8/13 
f 5/12/13 8/13/13 22/14/13 23/15/13 
f 5/12/13 23/15/13 24/16/13 18/8/13 
s 2
f 15/17/14 6/18/3 5/19/2 21/20/15 
f 22/17/16 8/18/5 7/19/4 14/20/17 
f 16/21/18 15/17/14 21/20/15 20/22/19 
f 17/23/20 16/21/18 20/22/19 19/24/21 
f 9/7/7 17/23/20 19/24/21 10/8/8 
f 23/21/22 22/17/16 14/20/17 13/22/23 
f 24/23/24 23/21/22 13/22/23 12/24/25 
f 18/7/11 24/23/24 12/24/25 11/8/12 
# 22 polygons

