# 3ds Max Wavefront OBJ Exporter v0.97b - (c)2007 guruware
# File Created: 20.04.2014 13:20:25

#
# object Midt_block_half_slope_right
#

v  269.9999 -0.0000 80.0000
v  269.9999 -0.0000 40.0000
v  229.9999 -0.0000 40.0000
v  229.9999 -0.0000 80.0000
v  269.9999 20.0000 76.0000
v  229.9999 30.0000 76.0000
v  229.9999 30.0000 44.0000
v  269.9999 20.0000 44.0000
v  229.9999 26.0000 80.0000
v  269.9999 16.0000 80.0000
v  229.9999 26.0000 40.0000
v  229.9999 27.7500 40.2500
v  229.9999 29.0000 41.0000
v  229.9999 29.7500 42.2500
v  229.9999 29.7500 77.7500
v  229.9999 29.0000 79.0000
v  229.9999 27.7500 79.7500
v  269.9999 16.0000 40.0000
v  269.9999 17.7500 79.7500
v  269.9999 19.0000 79.0000
v  269.9999 19.7500 77.7500
v  269.9999 19.7500 42.2500
v  269.9999 19.0000 41.0000
v  269.9999 17.7500 40.2500
# 24 vertices

vn 0.0000 -1.0000 -0.0000
vn 0.2419 0.9678 0.0695
vn 0.2420 0.9679 0.0680
vn 0.2420 0.9679 -0.0680
vn 0.2419 0.9678 -0.0695
vn 0.0000 0.0000 1.0000
vn 0.0205 0.0819 0.9964
vn 0.0150 0.0599 0.9981
vn -1.0000 0.0000 -0.0000
vn 0.0000 0.0000 -1.0000
vn 0.0150 0.0599 -0.9981
vn 0.0205 0.0819 -0.9964
vn 1.0000 0.0000 -0.0000
vn 0.2301 0.9202 0.3166
vn 0.2285 0.9139 0.3355
vn 0.2285 0.9139 -0.3355
vn 0.2301 0.9202 -0.3166
vn 0.1783 0.7133 0.6777
vn 0.1693 0.6773 0.7159
vn 0.0900 0.3599 0.9286
vn 0.0764 0.3057 0.9490
vn 0.1693 0.6773 -0.7159
vn 0.1783 0.7133 -0.6777
vn 0.0764 0.3057 -0.9490
vn 0.0900 0.3599 -0.9286
# 25 vertex normals

vt 1.0000 0.0000 0.0000
vt 1.0000 1.0000 0.0000
vt 0.0000 1.0000 0.0000
vt 0.0000 0.0000 0.0000
vt 0.0000 0.1000 0.0000
vt 1.0000 0.1000 0.0000
vt 1.0000 0.9000 0.0000
vt 0.0000 0.9000 0.0000
vt 0.9937 0.9438 0.0000
vt 0.9750 0.9750 0.0000
vt 0.9438 0.9937 0.0000
vt 0.9000 1.0000 0.0000
vt 0.1000 1.0000 0.0000
vt 0.0563 0.9937 0.0000
vt 0.0250 0.9750 0.0000
vt 0.0063 0.9438 0.0000
vt 1.0000 1.0061 0.0000
vt 1.0000 1.0414 0.0000
vt 0.0000 1.0414 0.0000
vt 0.0000 1.0061 0.0000
vt 1.0000 0.9707 0.0000
vt 0.0000 0.9707 0.0000
vt 1.0000 0.9354 0.0000
vt 0.0000 0.9354 0.0000
# 24 texture coords

g Midt_block_half_slope_right
s 1
f 4/4/1 3/3/1 2/2/1 1/1/1 
s 2
f 8/8/5 7/7/4 6/6/3 5/5/2 
f 10/8/8 9/7/7 4/1/6 1/4/6 
s 4
f 13/10/9 12/9/9 11/7/9 3/1/9 
f 7/12/9 14/11/9 13/10/9 3/1/9 
f 9/8/9 7/12/9 3/1/9 4/4/9 
f 16/15/9 15/14/9 6/13/9 7/12/9 
f 9/8/9 17/16/9 16/15/9 7/12/9 
s 2
f 11/8/12 18/7/11 2/1/10 3/4/10 
s 4
f 20/10/13 19/9/13 10/7/13 1/1/13 
f 5/12/13 21/11/13 20/10/13 1/1/13 
f 18/8/13 5/12/13 1/1/13 2/4/13 
f 23/15/13 22/14/13 8/13/13 5/12/13 
f 18/8/13 24/16/13 23/15/13 5/12/13 
s 2
f 21/20/15 5/19/2 6/18/3 15/17/14 
f 14/20/17 7/19/4 8/18/5 22/17/16 
f 20/22/19 21/20/15 15/17/14 16/21/18 
f 19/24/21 20/22/19 16/21/18 17/23/20 
f 10/8/8 19/24/21 17/23/20 9/7/7 
f 13/22/23 14/20/17 22/17/16 23/21/22 
f 12/24/25 13/22/23 23/21/22 24/23/24 
f 11/8/12 12/24/25 24/23/24 18/7/11 
# 22 polygons

