# 3ds Max Wavefront OBJ Exporter v0.97b - (c)2007 guruware
# File Created: 20.04.2014 13:16:19

#
# object Right_block_half
#

v  330.0000 0.0000 40.0000
v  366.0000 0.0000 40.0000
v  367.4400 0.0000 40.1600
v  368.5600 0.0000 40.6400
v  369.3600 0.0000 41.4400
v  369.8400 0.0000 42.5600
v  370.0000 0.0000 44.0000
v  330.0000 0.0000 80.0000
v  370.0000 0.0000 76.0000
v  369.8400 0.0000 77.4400
v  369.3600 0.0000 78.5600
v  368.5600 0.0000 79.3600
v  367.4400 0.0000 79.8400
v  366.0000 0.0000 80.0000
v  330.0000 20.0000 76.0000
v  366.0000 20.0000 76.0000
v  366.0000 20.0000 44.0000
v  330.0000 20.0000 44.0000
v  366.0000 16.0000 80.0000
v  330.0000 16.0000 80.0000
v  370.0000 16.0000 44.0000
v  370.0000 16.0000 76.0000
v  330.0000 16.0000 40.0000
v  366.0000 16.0000 40.0000
v  330.0000 17.4400 79.8400
v  330.0000 18.5600 79.3600
v  330.0000 19.3600 78.5600
v  330.0000 19.8400 77.4400
v  330.0000 19.8400 42.5600
v  330.0000 19.3600 41.4400
v  330.0000 18.5600 40.6400
v  330.0000 17.4400 40.1600
v  369.8400 16.5184 77.3824
v  369.8400 16.0000 77.4400
v  367.3824 16.5184 40.1600
v  367.4400 16.0000 40.1600
v  366.0000 19.8400 77.4400
v  367.4400 19.8400 44.0000
v  367.4400 19.8400 76.0000
v  366.0000 19.8400 42.5600
v  367.4400 16.0000 79.8400
v  369.8400 16.0000 42.5600
v  369.8400 17.4400 76.0000
v  369.8400 17.3824 76.5184
v  369.3600 18.4576 76.9216
v  369.3600 18.5600 76.0000
v  368.5600 19.2256 77.2096
v  368.5600 19.3600 76.0000
v  367.4400 19.6864 77.3824
v  369.8400 17.2096 76.9216
v  369.3600 18.1504 77.6384
v  368.5600 18.8224 78.1504
v  367.4400 19.2256 78.4576
v  366.0000 19.3600 78.5600
v  369.8400 16.9216 77.2096
v  369.3600 17.6384 78.1504
v  368.5600 18.1504 78.8224
v  367.4400 18.4576 79.2256
v  366.0000 18.5600 79.3600
v  369.3600 16.9216 78.4576
v  368.5600 17.2096 79.2256
v  367.4400 17.3824 79.6864
v  366.0000 17.4400 79.8400
v  369.3600 16.0000 78.5600
v  368.5600 16.0000 79.3600
v  366.0000 17.4400 40.1600
v  366.5184 17.3824 40.1600
v  366.9216 18.4576 40.6400
v  366.0000 18.5600 40.6400
v  367.2096 19.2256 41.4400
v  366.0000 19.3600 41.4400
v  367.3824 19.6864 42.5600
v  366.9216 17.2096 40.1600
v  367.6384 18.1504 40.6400
v  368.1504 18.8224 41.4400
v  368.4576 19.2256 42.5600
v  368.5600 19.3600 44.0000
v  367.2096 16.9216 40.1600
v  368.1504 17.6384 40.6400
v  368.8224 18.1504 41.4400
v  369.2256 18.4576 42.5600
v  369.3600 18.5600 44.0000
v  368.4576 16.9216 40.6400
v  369.2256 17.2096 41.4400
v  369.6864 17.3824 42.5600
v  369.8400 17.4400 44.0000
v  368.5600 16.0000 40.6400
v  369.3600 16.0000 41.4400
# 88 vertices

vn 0.0000 -1.0000 -0.0000
vn 0.0000 1.0000 -0.0000
vn 0.0000 0.0000 1.0000
vn 1.0000 0.0000 -0.0000
vn 0.0000 0.0000 -1.0000
vn -1.0000 0.0000 -0.0000
vn 0.9938 0.0123 0.1104
vn 0.1104 0.0123 -0.9938
vn 0.0000 0.9939 0.1104
vn 0.1104 0.9939 -0.0000
vn 0.0000 0.9939 -0.1104
vn 0.1104 0.0000 0.9939
vn 0.9939 0.0000 -0.1104
vn 0.9938 0.1104 0.0123
vn 0.9183 0.3935 0.0437
vn 0.7049 0.7049 0.0783
vn 0.3919 0.9144 0.1016
vn 0.1098 0.9879 0.1098
vn 0.9942 0.0991 0.0425
vn 0.9225 0.3548 0.1521
vn 0.7155 0.6421 0.2752
vn 0.4019 0.8416 0.3607
vn 0.1131 0.9132 0.3914
vn 0.9944 0.0747 0.0747
vn 0.9254 0.2680 0.2680
vn 0.7230 0.4885 0.4885
vn 0.4092 0.6452 0.6452
vn 0.1155 0.7024 0.7024
vn 0.9942 0.0425 0.0991
vn 0.9225 0.1521 0.3548
vn 0.7155 0.2752 0.6421
vn 0.4019 0.3607 0.8416
vn 0.1131 0.3914 0.9133
vn 0.9183 0.0437 0.3935
vn 0.7049 0.0783 0.7049
vn 0.3919 0.1016 0.9144
vn 0.1098 0.1098 0.9879
vn 0.0123 0.1104 -0.9938
vn 0.0437 0.3935 -0.9183
vn 0.0783 0.7049 -0.7049
vn 0.1016 0.9144 -0.3919
vn 0.1098 0.9879 -0.1098
vn 0.0425 0.0991 -0.9942
vn 0.1521 0.3548 -0.9225
vn 0.2752 0.6421 -0.7155
vn 0.3607 0.8416 -0.4019
vn 0.3914 0.9133 -0.1131
vn 0.0747 0.0747 -0.9944
vn 0.2680 0.2680 -0.9254
vn 0.4885 0.4885 -0.7230
vn 0.6452 0.6452 -0.4092
vn 0.7024 0.7024 -0.1155
vn 0.0991 0.0425 -0.9942
vn 0.3548 0.1521 -0.9225
vn 0.6421 0.2752 -0.7155
vn 0.8416 0.3607 -0.4019
vn 0.9133 0.3914 -0.1131
vn 0.3935 0.0437 -0.9183
vn 0.7049 0.0783 -0.7049
vn 0.9144 0.1016 -0.3919
vn 0.9879 0.1098 -0.1098
vn 0.0000 0.9191 0.3939
vn 0.0000 0.7071 0.7071
vn 0.0000 0.3939 0.9191
vn 0.0000 0.1104 0.9939
vn 0.3939 0.9191 -0.0000
vn 0.7071 0.7071 -0.0000
vn 0.9191 0.3939 -0.0000
vn 0.9939 0.1104 -0.0000
vn 0.0000 0.9191 -0.3939
vn 0.0000 0.7071 -0.7071
vn 0.0000 0.3939 -0.9191
vn 0.0000 0.1104 -0.9939
vn 0.3939 0.0000 0.9191
vn 0.7071 0.0000 0.7071
vn 0.9191 0.0000 0.3939
vn 0.9939 0.0000 0.1104
vn 0.9191 0.0000 -0.3939
vn 0.7071 0.0000 -0.7071
vn 0.3939 0.0000 -0.9191
vn 0.1104 0.0000 -0.9939
# 81 vertex normals

vt 1.0000 1.0000 0.0000
vt 0.1000 1.0000 0.0000
vt 0.0640 0.9960 0.0000
vt 0.0360 0.9840 0.0000
vt 0.0160 0.9640 0.0000
vt 0.0040 0.9360 0.0000
vt 0.0000 0.9000 0.0000
vt 1.0000 0.0000 0.0000
vt 0.0000 0.1000 0.0000
vt 0.0040 0.0640 0.0000
vt 0.0160 0.0360 0.0000
vt 0.0360 0.0160 0.0000
vt 0.0640 0.0040 0.0000
vt 0.1000 0.0000 0.0000
vt 0.9000 0.1000 0.0000
vt 0.9000 0.9000 0.0000
vt 0.0000 0.0000 0.0000
vt 0.9000 0.0000 0.0000
vt 0.1000 0.9000 0.0000
vt 1.0000 0.9000 0.0000
vt 0.9960 0.9360 0.0000
vt 0.9840 0.9640 0.0000
vt 0.9640 0.9840 0.0000
vt 0.9360 0.9960 0.0000
vt 0.9000 1.0000 0.0000
vt 0.0000 1.0000 0.0000
vt 0.8707 1.0093 0.0000
vt 0.8634 1.0366 0.0000
vt -0.0366 1.0366 0.0000
vt -0.0293 1.0093 0.0000
vt 0.9000 0.7869 0.0000
vt 0.9000 0.7586 0.0000
vt 0.1000 0.7586 0.0000
vt 0.1000 0.7869 0.0000
vt 1.0293 1.0093 0.0000
vt 1.0366 1.0366 0.0000
vt 0.1366 1.0366 0.0000
vt 0.1293 1.0093 0.0000
vt -0.0093 0.8707 0.0000
vt -0.0366 0.8634 0.0000
vt -0.0366 -0.0366 0.0000
vt -0.0093 -0.0293 0.0000
vt 0.0631 0.9348 0.0000
vt 0.0324 0.9593 0.0000
vt 0.0079 0.9735 0.0000
vt -0.0104 0.9773 0.0000
vt -0.0153 0.9744 0.0000
vt -0.0225 0.9707 0.0000
vt -0.0117 0.9621 0.0000
vt -0.0117 0.9339 0.0000
vt -0.0153 0.8896 0.0000
vt -0.0225 0.8293 0.0000
vt 0.8780 0.9820 0.0000
vt -0.0220 0.9820 0.0000
vt 0.8854 0.9546 0.0000
vt -0.0146 0.9546 0.0000
vt 0.8927 0.9273 0.0000
vt -0.0073 0.9273 0.0000
vt 0.9000 0.8151 0.0000
vt 0.1000 0.8151 0.0000
vt 0.9000 0.8434 0.0000
vt 0.1000 0.8434 0.0000
vt 0.9000 0.8717 0.0000
vt 0.1000 0.8717 0.0000
vt 1.0220 0.9820 0.0000
vt 0.1220 0.9820 0.0000
vt 1.0146 0.9546 0.0000
vt 0.1146 0.9546 0.0000
vt 1.0073 0.9273 0.0000
vt 0.1073 0.9273 0.0000
vt 0.0180 0.8780 0.0000
vt 0.0180 -0.0220 0.0000
vt 0.0454 0.8854 0.0000
vt 0.0454 -0.0146 0.0000
vt 0.0727 0.8927 0.0000
vt 0.0727 -0.0073 0.0000
# 76 texture coords

g Right_block_half
s off
f 1/1/1 2/2/1 3/3/1 4/4/1 
f 1/1/1 4/4/1 5/5/1 6/6/1 
f 1/1/1 6/6/1 7/7/1 8/8/1 
f 7/7/1 9/9/1 10/10/1 11/11/1 
f 7/7/1 11/11/1 12/12/1 13/13/1 
f 7/7/1 13/13/1 14/14/1 8/8/1 
f 15/9/2 16/15/2 17/16/2 18/7/2 
f 8/17/3 14/18/3 19/16/3 20/7/3 
f 9/14/4 7/18/4 21/16/4 22/19/4 
f 2/14/5 1/8/5 23/20/5 24/19/5 
f 8/8/6 20/20/6 25/21/6 26/22/6 
f 8/8/6 26/22/6 27/23/6 28/24/6 
f 8/8/6 28/24/6 15/25/6 1/17/6 
f 15/25/6 18/2/6 29/3/6 30/4/6 
f 15/25/6 30/4/6 31/5/6 32/6/6 
f 15/25/6 32/6/6 23/7/6 1/17/6 
f 22/19/7 33/26/7 34/26/7 
f 24/19/8 35/26/8 36/26/8 
f 37/27/9 16/28/9 15/29/9 28/30/9 
f 38/31/10 17/32/10 16/33/10 39/34/10 
f 29/35/11 18/36/11 17/37/11 40/38/11 
f 41/39/12 19/40/12 14/41/12 13/42/12 
f 42/39/13 21/40/13 7/41/13 6/42/13 
f 22/19/14 43/43/14 44/26/14 
f 45/26/15 44/26/15 43/43/15 46/44/15 
f 47/26/16 45/26/16 46/44/16 48/45/16 
f 49/26/17 47/26/17 48/45/17 39/46/17 
f 37/47/18 49/26/18 39/46/18 16/48/18 
f 22/19/19 44/26/19 50/26/19 
f 51/26/20 50/26/20 44/26/20 45/26/20 
f 52/26/21 51/26/21 45/26/21 47/26/21 
f 53/26/22 52/26/22 47/26/22 49/26/22 
f 54/49/23 53/26/23 49/26/23 37/47/23 
f 22/19/24 50/26/24 55/26/24 
f 56/26/25 55/26/25 50/26/25 51/26/25 
f 57/26/26 56/26/26 51/26/26 52/26/26 
f 58/26/27 57/26/27 52/26/27 53/26/27 
f 59/50/28 58/26/28 53/26/28 54/49/28 
f 22/19/29 55/26/29 33/26/29 
f 60/26/30 33/26/30 55/26/30 56/26/30 
f 61/26/31 60/26/31 56/26/31 57/26/31 
f 62/26/32 61/26/32 57/26/32 58/26/32 
f 63/51/33 62/26/33 58/26/33 59/50/33 
f 64/26/34 34/26/34 33/26/34 60/26/34 
f 65/26/35 64/26/35 60/26/35 61/26/35 
f 41/26/36 65/26/36 61/26/36 62/26/36 
f 19/52/37 41/26/37 62/26/37 63/51/37 
f 24/19/38 66/43/38 67/26/38 
f 68/26/39 67/26/39 66/43/39 69/44/39 
f 70/26/40 68/26/40 69/44/40 71/45/40 
f 72/26/41 70/26/41 71/45/41 40/46/41 
f 38/47/42 72/26/42 40/46/42 17/48/42 
f 24/19/43 67/26/43 73/26/43 
f 74/26/44 73/26/44 67/26/44 68/26/44 
f 75/26/45 74/26/45 68/26/45 70/26/45 
f 76/26/46 75/26/46 70/26/46 72/26/46 
f 77/49/47 76/26/47 72/26/47 38/47/47 
f 24/19/48 73/26/48 78/26/48 
f 79/26/49 78/26/49 73/26/49 74/26/49 
f 80/26/50 79/26/50 74/26/50 75/26/50 
f 81/26/51 80/26/51 75/26/51 76/26/51 
f 82/50/52 81/26/52 76/26/52 77/49/52 
f 24/19/53 78/26/53 35/26/53 
f 83/26/54 35/26/54 78/26/54 79/26/54 
f 84/26/55 83/26/55 79/26/55 80/26/55 
f 85/26/56 84/26/56 80/26/56 81/26/56 
f 86/51/57 85/26/57 81/26/57 82/50/57 
f 87/26/58 36/26/58 35/26/58 83/26/58 
f 88/26/59 87/26/59 83/26/59 84/26/59 
f 42/26/60 88/26/60 84/26/60 85/26/60 
f 21/52/61 42/26/61 85/26/61 86/51/61 
f 54/53/62 37/27/62 28/30/62 27/54/62 
f 59/55/63 54/53/63 27/54/63 26/56/63 
f 63/57/64 59/55/64 26/56/64 25/58/64 
f 19/16/65 63/57/65 25/58/65 20/7/65 
f 77/59/66 38/31/66 39/34/66 48/60/66 
f 82/61/67 77/59/67 48/60/67 46/62/67 
f 86/63/68 82/61/68 46/62/68 43/64/68 
f 21/16/69 86/63/69 43/64/69 22/19/69 
f 30/65/70 29/35/70 40/38/70 71/66/70 
f 31/67/71 30/65/71 71/66/71 69/68/71 
f 32/69/72 31/67/72 69/68/72 66/70/72 
f 23/20/73 32/69/73 66/70/73 24/19/73 
f 65/71/74 41/39/74 13/42/74 12/72/74 
f 64/73/75 65/71/75 12/72/75 11/74/75 
f 34/75/76 64/73/76 11/74/76 10/76/76 
f 22/19/77 34/75/77 10/76/77 9/14/77 
f 88/71/78 42/39/78 6/42/78 5/72/78 
f 87/73/79 88/71/79 5/72/79 4/74/79 
f 36/75/80 87/73/80 4/74/80 3/76/80 
f 24/19/81 36/75/81 3/76/81 2/14/81 
# 81 polygons - 10 triangles

